<!DOCTYPE svg PUBLIC "-//W3C//DTD SVG 1.1//EN" "http://www.w3.org/Graphics/SVG/1.1/DTD/svg11.dtd">
<!-- Uploaded to: SVG Repo, www.svgrepo.com, Transformed by: SVG Repo Mixer Tools -->
<svg fill="#8C5B74" version="1.1" id="Layer_1" xmlns="http://www.w3.org/2000/svg" xmlns:xlink="http://www.w3.org/1999/xlink" width="256px" height="256px" viewBox="0 0 100.00 100.00" enable-background="new 0 0 100 100" xml:space="preserve" style="--darkreader-inline-fill: #70495d;" data-darkreader-inline-fill="">
<g id="SVGRepo_bgCarrier" stroke-width="0"/>
<g id="SVGRepo_tracerCarrier" stroke-linecap="round" stroke-linejoin="round" stroke="#CCCCCC" stroke-width="0.8" style="--darkreader-inline-stroke: #c8c3bc;" data-darkreader-inline-stroke=""/>
<g id="SVGRepo_iconCarrier"> <g> <path d="M36.689,50.442c0,7.583,6.169,13.752,13.751,13.752c7.583,0,13.752-6.169,13.752-13.752S58.023,36.69,50.44,36.69 C42.858,36.69,36.689,42.859,36.689,50.442z M50.44,40.69c5.377,0,9.752,4.375,9.752,9.752s-4.375,9.752-9.752,9.752 s-9.751-4.375-9.751-9.752S45.063,40.69,50.44,40.69z"/> <circle cx="50.378" cy="31.392" r="2.709"/> <circle cx="50.377" cy="69.391" r="2.708"/> <circle cx="31.378" cy="50.391" r="2.709"/> <circle cx="69.378" cy="50.392" r="2.709"/> <circle cx="36.942" cy="36.957" r="2.709"/> <circle cx="63.812" cy="63.826" r="2.708"/> <circle cx="36.943" cy="63.826" r="2.709"/> <circle cx="63.813" cy="36.956" r="2.709"/> </g> </g>
</svg>