<!DOCTYPE svg PUBLIC "-//W3C//DTD SVG 1.1//EN" "http://www.w3.org/Graphics/SVG/1.1/DTD/svg11.dtd">
<!-- Uploaded to: SVG Repo, www.svgrepo.com, Transformed by: SVG Repo Mixer Tools -->
<svg width="256px" height="256px" viewBox="0 0 512 512" version="1.1" xmlns="http://www.w3.org/2000/svg" xmlns:xlink="http://www.w3.org/1999/xlink" fill="#8C5B74" style="--darkreader-inline-fill: #70495d; --darkreader-inline-stroke: #9f978a;" stroke="#8C5B74" data-darkreader-inline-fill="" data-darkreader-inline-stroke="">
<g id="SVGRepo_bgCarrier" stroke-width="0"/>
<g id="SVGRepo_tracerCarrier" stroke-linecap="round" stroke-linejoin="round"/>
<g id="SVGRepo_iconCarrier"> <title>screenshot</title> <g id="Page-1" stroke="none" stroke-width="1" fill="none" fill-rule="evenodd" style="--darkreader-inline-stroke: none;" data-darkreader-inline-stroke=""> <g id="drop" fill="#8C5B74" transform="translate(42.666667, 42.666667)" style="--darkreader-inline-fill: #70495d;" data-darkreader-inline-fill=""> <path d="M106.666667,7.10542736e-15 L106.666667,64 L362.666667,64 L362.666667,320 L426.666667,320 L426.666667,362.666667 L362.666667,362.666667 L362.666667,426.666667 L320,426.666667 L320,362.666667 L64,362.666667 L64,7.10542736e-15 L106.666667,7.10542736e-15 Z M166.336,232.64 L106.666,296.422 L106.666667,320 L320,320 L320,308.725 L274.432,263.168 L235.659405,301.959634 L166.336,232.64 Z M320,106.666667 L106.666667,106.666667 L106.666,233.982 L165.332883,171.293333 L235.648,241.621333 L274.447284,202.831976 L320,248.385 L320,106.666667 Z M245.333333,128 C263.006445,128 277.333333,142.326888 277.333333,160 C277.333333,177.673112 263.006445,192 245.333333,192 C227.660221,192 213.333333,177.673112 213.333333,160 C213.333333,142.326888 227.660221,128 245.333333,128 Z M64,64 L64,106.666667 L7.10542736e-15,106.666667 L7.10542736e-15,64 L64,64 Z" id="Combined-Shape"> </path> </g> </g> </g>
</svg>